<svg xmlns="http://www.w3.org/2000/svg" viewBox="0 0 404.05 211.88">
  <defs>
    <style>.cls-1,.cls-2{fill:none;stroke:#35DB82;stroke-miterlimit:10;}.cls-1{stroke-width:14px;}.cls-2{stroke-width:10px;}</style>
  </defs>
  <title>ac</title>
  <g id="Layer_2" data-name="Layer 2">
    <g id="Layer_1-2" data-name="Layer 1">
      <path class="cls-1" d="M108,8.4c52.78,1.8,94.17,46.13,94.17,98.94v96.2H106c-52.81,0-97.14-41.39-98.95-94.17A97.6,97.6,0,0,1,108,8.4Z"/>
      <path class="cls-2" d="M106.08,60.76c24.89.14,44,19.7,44,46.41V150.1a1.29,1.29,0,0,1-1.3,1.3H105.83c-26.71,0-46.26-19.1-46.4-44A46.66,46.66,0,0,1,106.08,60.76Z"/>
      <path class="cls-1" d="M399.46,31.25A98.94,98.94,0,1,0,336.3,204.86"/>
      <path class="cls-2" d="M333.73,57.81a44.16,44.16,0,0,1,43.56,33.31"/>
      <path class="cls-2" d="M294.82,121.24a43.93,43.93,0,0,1-4.44-18.54"/>
      <path class="cls-2" d="M366.56,132.24a44.13,44.13,0,0,1-71.74-11"/>
      <path class="cls-2" d="M377.29,91.12a44.27,44.27,0,0,1-10.73,41.12"/>
    </g>
  </g>
</svg>